<svg id="Layer_2" data-name="Layer 2" xmlns="http://www.w3.org/2000/svg" viewBox="0 0 625.48 239.46"><defs><style>.cls-1{fill:#f3f98b;stroke:#000;stroke-miterlimit:10;stroke-width:0.5px;}</style></defs><path class="cls-1" d="M213.5,229.5s-13,11-11,13,6.76,0,6.76,0l-13.76,19v3s6,0,8-2-16,19-16,23,7-1,7-1-22,28-20,28,12-9,11-6-24,29-20,29,11-7,10-4-16,22-15,26,7-5,7-5-4,10-3,10,12-8,12-10-3,8-2,9,17-20,17-16,15-19,19-22-3-2-3-2,12-14,13-17-6,3-6,3,16-15,16-18-2,7,3,2a66.05,66.05,0,0,1,12-9s-5,8-3,8,16-16,18-15,3,4,13-7h-7s21-17,23-16c-7,1-16,4-14,2s10-8,10-8-19,8-17,5a36.09,36.09,0,0,1,4-5s-17,11-18,8a5,5,0,0,1,1-5s-16,8-14,4,11-12,11-12,47-37,49-37c-4,0-5-1,0-5s7-12,1-7c1-5-12,5-12,5a14.64,14.64,0,0,1,5-8c-7,3-24,19-25,16l-1-3s-25,19-18,8c-7,7-19,18-19,12S213.5,229.5,213.5,229.5Z" transform="translate(-160.2 -123.29)"/><path class="cls-1" d="M325.5,216.5s4-10,21-19c-1,5-3,9,13-2,2-1-14,17-7,15s13.35-7.1,7.17,2.45S331.5,244.5,346.5,238.5a19.19,19.19,0,0,1,8-5s-21,32-15,29,7-4,7-4-18,24-12,20,13-10,5,3,2,5,2,5,15-13,18-13-1,4-1,4-7,9-1,6c5-4,11-12,17-15-2,5,1,3,1,3l8-7s9-2,11-3-2,3,1,2,10-8,11-6-10,15-10,15l6-3s-9,9-11,14-9,12-11,12,2-5,2-5-8.94,3.6-16.47,16.3c-7.53,8.7-14.53,11.7-14.53,11.7s4-7,3-8-24,22-29,24l2-6s-9,5-14,9-11,9-14,7,1-5,1-5-8,4-9,7v-5s-12,6-18,12,4-10,4-10,5-8-1-4-11,9-13,8,12-18,11-19-5,3-6,1,12.76-18.76,15-21c3.91-3.91,8.44-9.05,10.22-11.1a7.67,7.67,0,0,0,1.24-2l2.54-5.92s-13,14-13,10,9.4-19,12.7-23.5,10.3-8.5,11.3-11.5a7.54,7.54,0,0,0,0-4s-8,6-9,4,11-17,17-21a12.92,12.92,0,0,0,6-10s-7,4-7,1S325.5,216.5,325.5,216.5Z" transform="translate(-160.2 -123.29)"/><path class="cls-1" d="M521.5,196.5c-10,2-6-2-3-7s3-7-5-4-11,2-6-4,8-12-3-6-15,6-11,1,9-10,0-7-18,8-20,13c-4,3-26,14-24,17a10.56,10.56,0,0,0,6,0s-31,22-32,27c1,3,11,0,11,0s-24,21-20,25c2,1,12-5,12-5s-26,35-9,27c6-3,3,0-3,8s-10,18-7,18,13-8,16-8,2,3-2,9-8,11-1,7,18-12,15-7-5,9.32.51,5.66a26,26,0,0,0,5.1-4c-.7,1.18-1.9,3.5.39,2.15a96.24,96.24,0,0,0,8-5.78s-2,6,2,3,9-6,15-20c0,4,4,2,15-11,7-10,7-14,10-10,5-5,15-14,22-36-3,0-6,0,2-8C520.5,208.5,531.5,194.5,521.5,196.5ZM487.85,208s-9.35,9.5-10.35,13.5-.6,3,4.7,0c-2.7,4-6.86,6.53-10.78,14.27s-5.92,9.73-5.92,9.73l-10,18s1-10-6.51,0c-3.49,0-9.49,6-9.49,6s2-5-2-1c7-8,17-21,6-16,7-8,24-27,10-21,11-9,18-21,8-16,0,0,2-3,8-6s5-9,12-9-.89,7.5-.89,7.5-12.11,10.5-.11,5.5C489.5,206.5,487.85,208,487.85,208Z" transform="translate(-160.2 -123.29)"/><path class="cls-1" d="M586.5,176.5s11.86-14-8.57,0-20.43,18-25.43,20-14,12-9,11,8-3,2,3-32,37-24,33,10.12-5.15,4.06,1.92S502.5,271.5,507.5,270.5c5-5,8-4,8-4s-25,31-18,31c6-5,17-14,21-12s-2,11-2,11-7,11,3,3,21-19,25-19-2,6-2,6,0,2,10-7,12-5,9-2,3,1,6-2,5-7,7-7c-4,1-9.79,4-7.39,1s8.39-5,9.39-9,14-15,14-15a73.55,73.55,0,0,0,15-10.5c0-1.5-6,4.5-9,2.5s2-6,2-6,1-2-3,0-11,7-10,2l3-3s2-3-2-1-9.3,10.69-9.65,6.85-6.35,5.15-6.35,5.15-16,15-12,7,10.31-7.47,11.15-9.73-6.15,1.73-10.15,1.73,3-6,3-6,8-7,9-10c0-2-13,11-13,6s13-13,13-13,13-8,14-11c-5,3-9,2-3-2s10-9,17-11,14-9,14-9,22-15,13-3c-2,2,23-14,10-9,0,0,14.6-7.81-4.7-3.91,0,0-9.3,4.91-.3-5.09,3-3-16.65,10.19-14.83,5.09s.83-3.09-8.17,1.91-9,3-8,0-9,6-13,7C585.56,178,586.5,176.5,586.5,176.5Z" transform="translate(-160.2 -123.29)"/><path class="cls-1" d="M709.5,217.5s7-4,13-4,26-9,20-12c-22,2,38-28,17-26-15.38,7.24,1-6,1-6s22-16,24-16c0-2-8,0-15,5,14-10,18-12.81,15-12.4s-21,9.4-21,9.4-4,0,0-3a27.64,27.64,0,0,0,6-6s-1-3-13,6-20,13-28,22-17,11-17,11-8,3-17,12-17,16-18,13,11-7,12-9,5-7-4-2-10,4-10,4a17.9,17.9,0,0,0,6-5c2-3,13-11,13-11s11-8,2-6c-7,4-11,2-5-2s16-11,19-14,5-5,0-3-17,9-12,3,15-14,15-14,8-7,10-10c-5,2-20,10-16,5s23-22,23-22-28,15-15,3c0,0-10,6-27,20s-25,22-16,18,16-6,1,4-32,20-21,18,12-4,1,5-25,21-16,19,19-9,8,2-19.76,19.22-10.88,15.61,9.88-4.61,2.88,2.39-27,29-17,24,7-4,7-4-32,25-19,19,5,.93,5,.93-2-.93-6,3.07-11,16-8,15,22-13,18-5c-4,4-15,14-8,12,4-3,13-13,16-13a4.33,4.33,0,0,0,4-2s-3,5-2,7c3-5,13-14,21-17-8,2-2-1,1-3s7.64-8.47,7.64-8.47-2.37,6.72,0,4.59,13.36-10.12,14.36-7.12,3,0,3,0,8-10,8-8,2,10,4,11l2,1s1-18,3-14,1,6,5,9,7,10,9,9c-1-4-1-10,0-10s20,24,21,19a15.22,15.22,0,0,0-1-9s20,24,20,20-3-13-3-13l16,14s-4-15-8-17c5,2,5,0,1-5s0-3,0-3-1-13-6-13c-2,0-2,4-2,4s-4-13-6-10-1,5-1,5-1-8-2-8-2,2-2,2-1-12-6-12c-2,1-3,4-3,4s-1-11-3-8-4-2-4-2-4-4-5,2c-3-2,0-10-8,0a28.77,28.77,0,0,1,4-6C708.5,217.5,709.5,217.5,709.5,217.5Z" transform="translate(-160.2 -123.29)"/></svg>